<mxfile host="Electron" agent="Mozilla/5.0 (X11; Linux x86_64) AppleWebKit/537.36 (KHTML, like Gecko) draw.io/26.0.9 Chrome/128.0.6613.186 Electron/32.3.0 Safari/537.36" version="26.0.9">
  <diagram name="Page-1" id="mo3Eq7b-B0tSczKJBJQQ">
    <mxGraphModel dx="869" dy="1116" grid="1" gridSize="10" guides="1" tooltips="1" connect="1" arrows="1" fold="1" page="1" pageScale="1" pageWidth="413" pageHeight="583" math="0" shadow="0">
      <root>
        <mxCell id="0" />
        <mxCell id="1" parent="0" />
        <mxCell id="AJ046ehytsaY92THiT1I-4" value="" style="rounded=0;orthogonalLoop=1;jettySize=auto;html=1;verticalAlign=bottom;fontSize=12;align=left;" parent="1" source="AJ046ehytsaY92THiT1I-173" target="AJ046ehytsaY92THiT1I-3" edge="1">
          <mxGeometry x="-0.9545" relative="1" as="geometry">
            <mxPoint as="offset" />
          </mxGeometry>
        </mxCell>
        <mxCell id="AJ046ehytsaY92THiT1I-9" value="Valeur instantanée" style="rounded=0;orthogonalLoop=1;jettySize=auto;html=1;verticalAlign=bottom;align=left;fontSize=12;" parent="1" source="AJ046ehytsaY92THiT1I-3" target="AJ046ehytsaY92THiT1I-6" edge="1">
          <mxGeometry x="0.4576" relative="1" as="geometry">
            <Array as="points">
              <mxPoint x="1400" y="160" />
              <mxPoint x="1400" y="310" />
            </Array>
            <mxPoint as="offset" />
          </mxGeometry>
        </mxCell>
        <mxCell id="AJ046ehytsaY92THiT1I-10" value="Débit continu" style="rounded=0;orthogonalLoop=1;jettySize=auto;html=1;verticalAlign=bottom;align=left;fontSize=12;" parent="1" source="AJ046ehytsaY92THiT1I-3" target="AJ046ehytsaY92THiT1I-7" edge="1">
          <mxGeometry x="0.339" relative="1" as="geometry">
            <Array as="points">
              <mxPoint x="1370" y="160" />
              <mxPoint x="1370" y="350" />
            </Array>
            <mxPoint as="offset" />
          </mxGeometry>
        </mxCell>
        <mxCell id="AJ046ehytsaY92THiT1I-3" value="SI" style="whiteSpace=wrap;html=1;shape=rhombus;perimeter=rhombusPerimeter;fontSize=12;" parent="1" vertex="1">
          <mxGeometry x="1320" y="118.5" width="40" height="40" as="geometry" />
        </mxCell>
        <mxCell id="AJ046ehytsaY92THiT1I-6" value="Jauge" style="rounded=1;whiteSpace=wrap;html=1;fontSize=12;" parent="1" vertex="1">
          <mxGeometry x="1460" y="300" width="160" height="20" as="geometry" />
        </mxCell>
        <mxCell id="AJ046ehytsaY92THiT1I-7" value="Ruisseau" style="rounded=1;whiteSpace=wrap;html=1;fontSize=12;" parent="1" vertex="1">
          <mxGeometry x="1460" y="340" width="160" height="20" as="geometry" />
        </mxCell>
        <mxCell id="AJ046ehytsaY92THiT1I-101" value="Grand jeu&lt;div&gt;de données&lt;/div&gt;" style="rounded=0;orthogonalLoop=1;jettySize=auto;html=1;verticalAlign=bottom;align=left;" parent="1" source="AJ046ehytsaY92THiT1I-22" target="AJ046ehytsaY92THiT1I-99" edge="1">
          <mxGeometry x="0.8025" relative="1" as="geometry">
            <Array as="points">
              <mxPoint x="1015" y="160" />
            </Array>
            <mxPoint as="offset" />
          </mxGeometry>
        </mxCell>
        <mxCell id="AJ046ehytsaY92THiT1I-119" value="Faible jeu&lt;div&gt;de données&lt;/div&gt;" style="rounded=0;orthogonalLoop=1;jettySize=auto;html=1;entryX=0.5;entryY=0;entryDx=0;entryDy=0;align=left;verticalAlign=bottom;" parent="1" source="AJ046ehytsaY92THiT1I-22" target="AJ046ehytsaY92THiT1I-116" edge="1">
          <mxGeometry x="0.8025" relative="1" as="geometry">
            <mxPoint as="offset" />
            <Array as="points">
              <mxPoint x="865" y="160" />
            </Array>
          </mxGeometry>
        </mxCell>
        <mxCell id="AJ046ehytsaY92THiT1I-22" value="SI" style="whiteSpace=wrap;html=1;shape=rhombus;perimeter=rhombusPerimeter;fontSize=12;" parent="1" vertex="1">
          <mxGeometry x="920" y="120" width="40" height="40" as="geometry" />
        </mxCell>
        <mxCell id="AJ046ehytsaY92THiT1I-83" value="Sismographe" style="rounded=1;whiteSpace=wrap;html=1;fontSize=12;" parent="1" vertex="1">
          <mxGeometry x="1460" y="420" width="160" height="20" as="geometry" />
        </mxCell>
        <mxCell id="AJ046ehytsaY92THiT1I-85" value="Vibration" style="rounded=0;orthogonalLoop=1;jettySize=auto;html=1;verticalAlign=bottom;align=left;fontSize=12;" parent="1" source="AJ046ehytsaY92THiT1I-3" target="AJ046ehytsaY92THiT1I-83" edge="1">
          <mxGeometry x="0.277" relative="1" as="geometry">
            <mxPoint x="800" y="800" as="targetPoint" />
            <Array as="points">
              <mxPoint x="1310" y="160" />
              <mxPoint x="1310" y="430" />
            </Array>
            <mxPoint as="offset" />
          </mxGeometry>
        </mxCell>
        <mxCell id="AJ046ehytsaY92THiT1I-86" value="Seuils de contrôle" style="rounded=0;orthogonalLoop=1;jettySize=auto;html=1;verticalAlign=bottom;align=left;fontSize=12;" parent="1" source="AJ046ehytsaY92THiT1I-3" target="AJ046ehytsaY92THiT1I-89" edge="1">
          <mxGeometry x="0.2603" relative="1" as="geometry">
            <mxPoint x="800" y="860" as="targetPoint" />
            <mxPoint as="offset" />
            <Array as="points">
              <mxPoint x="1340" y="390" />
            </Array>
          </mxGeometry>
        </mxCell>
        <mxCell id="AJ046ehytsaY92THiT1I-87" value="Autrement" style="rounded=0;orthogonalLoop=1;jettySize=auto;html=1;verticalAlign=bottom;align=left;fontSize=12;" parent="1" source="AJ046ehytsaY92THiT1I-3" target="AJ046ehytsaY92THiT1I-90" edge="1">
          <mxGeometry x="0.2938" relative="1" as="geometry">
            <mxPoint x="800" y="920" as="targetPoint" />
            <Array as="points">
              <mxPoint x="1280" y="160" />
              <mxPoint x="1280" y="470" />
            </Array>
            <mxPoint as="offset" />
          </mxGeometry>
        </mxCell>
        <mxCell id="AJ046ehytsaY92THiT1I-89" value="Horizon" style="rounded=1;whiteSpace=wrap;html=1;fontSize=12;" parent="1" vertex="1">
          <mxGeometry x="1460" y="380" width="160" height="20" as="geometry" />
        </mxCell>
        <mxCell id="AJ046ehytsaY92THiT1I-90" value="Ligne" style="rounded=1;whiteSpace=wrap;html=1;fontSize=12;" parent="1" vertex="1">
          <mxGeometry x="1460" y="460" width="160" height="20" as="geometry" />
        </mxCell>
        <mxCell id="AJ046ehytsaY92THiT1I-102" value="1 seul jeu" style="rounded=0;orthogonalLoop=1;jettySize=auto;html=1;align=left;verticalAlign=bottom;" parent="1" source="AJ046ehytsaY92THiT1I-99" target="AJ046ehytsaY92THiT1I-103" edge="1">
          <mxGeometry x="0.2774" relative="1" as="geometry">
            <mxPoint x="580" y="500" as="targetPoint" />
            <Array as="points">
              <mxPoint x="1030" y="240" />
              <mxPoint x="1030" y="310" />
            </Array>
            <mxPoint as="offset" />
          </mxGeometry>
        </mxCell>
        <mxCell id="AJ046ehytsaY92THiT1I-105" value="Autrement" style="rounded=0;orthogonalLoop=1;jettySize=auto;html=1;align=left;verticalAlign=bottom;" parent="1" source="AJ046ehytsaY92THiT1I-99" target="AJ046ehytsaY92THiT1I-104" edge="1">
          <mxGeometry x="0.2253" relative="1" as="geometry">
            <Array as="points">
              <mxPoint x="1000" y="240" />
              <mxPoint x="1000" y="350" />
            </Array>
            <mxPoint as="offset" />
          </mxGeometry>
        </mxCell>
        <mxCell id="AJ046ehytsaY92THiT1I-99" value="SI" style="whiteSpace=wrap;html=1;shape=rhombus;perimeter=rhombusPerimeter;fontSize=12;" parent="1" vertex="1">
          <mxGeometry x="995" y="200" width="40" height="40" as="geometry" />
        </mxCell>
        <mxCell id="AJ046ehytsaY92THiT1I-103" value="Courbe de densité" style="rounded=1;whiteSpace=wrap;html=1;fontSize=12;" parent="1" vertex="1">
          <mxGeometry x="1060" y="300" width="160" height="20" as="geometry" />
        </mxCell>
        <mxCell id="AJ046ehytsaY92THiT1I-104" value="Violon" style="rounded=1;whiteSpace=wrap;html=1;fontSize=12;" parent="1" vertex="1">
          <mxGeometry x="1060" y="340" width="160" height="20" as="geometry" />
        </mxCell>
        <mxCell id="AJ046ehytsaY92THiT1I-106" value="Histogramme" style="rounded=1;whiteSpace=wrap;html=1;fontSize=12;" parent="1" vertex="1">
          <mxGeometry x="1060" y="380" width="160" height="20" as="geometry" />
        </mxCell>
        <mxCell id="AJ046ehytsaY92THiT1I-107" value="Valeur Lettrée" style="rounded=1;whiteSpace=wrap;html=1;fontSize=12;" parent="1" vertex="1">
          <mxGeometry x="1060" y="420" width="160" height="20" as="geometry" />
        </mxCell>
        <mxCell id="AJ046ehytsaY92THiT1I-108" value="Boite à Moustache" style="rounded=1;whiteSpace=wrap;html=1;fontSize=12;" parent="1" vertex="1">
          <mxGeometry x="1060" y="460" width="160" height="20" as="geometry" />
        </mxCell>
        <mxCell id="AJ046ehytsaY92THiT1I-109" value="Moyen jeu&lt;br&gt;de données" style="rounded=0;orthogonalLoop=1;jettySize=auto;html=1;verticalAlign=bottom;align=left;" parent="1" source="AJ046ehytsaY92THiT1I-22" target="AJ046ehytsaY92THiT1I-110" edge="1">
          <mxGeometry x="0.5" relative="1" as="geometry">
            <mxPoint x="390" y="570" as="sourcePoint" />
            <mxPoint x="530" y="550" as="targetPoint" />
            <mxPoint as="offset" />
          </mxGeometry>
        </mxCell>
        <mxCell id="AJ046ehytsaY92THiT1I-113" value="Autrement" style="rounded=0;orthogonalLoop=1;jettySize=auto;html=1;entryX=0;entryY=0.5;entryDx=0;entryDy=0;align=left;verticalAlign=bottom;" parent="1" source="AJ046ehytsaY92THiT1I-110" target="AJ046ehytsaY92THiT1I-108" edge="1">
          <mxGeometry x="0.2033" relative="1" as="geometry">
            <Array as="points">
              <mxPoint x="910" y="240" />
              <mxPoint x="910" y="470" />
            </Array>
            <mxPoint as="offset" />
          </mxGeometry>
        </mxCell>
        <mxCell id="AJ046ehytsaY92THiT1I-110" value="SI" style="whiteSpace=wrap;html=1;shape=rhombus;perimeter=rhombusPerimeter;fontSize=12;" parent="1" vertex="1">
          <mxGeometry x="920" y="200" width="40" height="40" as="geometry" />
        </mxCell>
        <mxCell id="AJ046ehytsaY92THiT1I-111" value="1 seul jeu" style="rounded=0;orthogonalLoop=1;jettySize=auto;html=1;align=left;verticalAlign=bottom;" parent="1" source="AJ046ehytsaY92THiT1I-110" target="AJ046ehytsaY92THiT1I-106" edge="1">
          <mxGeometry x="0.2356" relative="1" as="geometry">
            <mxPoint x="500" y="560" as="sourcePoint" />
            <mxPoint x="620" y="520" as="targetPoint" />
            <Array as="points">
              <mxPoint x="970" y="240" />
              <mxPoint x="970" y="390" />
            </Array>
            <mxPoint as="offset" />
          </mxGeometry>
        </mxCell>
        <mxCell id="AJ046ehytsaY92THiT1I-112" value="Analyse avancée" style="rounded=0;orthogonalLoop=1;jettySize=auto;html=1;align=left;verticalAlign=bottom;" parent="1" source="AJ046ehytsaY92THiT1I-110" target="AJ046ehytsaY92THiT1I-107" edge="1">
          <mxGeometry x="0.1613" relative="1" as="geometry">
            <mxPoint x="520" y="580" as="sourcePoint" />
            <mxPoint x="620" y="580" as="targetPoint" />
            <mxPoint as="offset" />
            <Array as="points">
              <mxPoint x="940" y="430" />
            </Array>
          </mxGeometry>
        </mxCell>
        <mxCell id="AJ046ehytsaY92THiT1I-114" value="Carte de fréquentation" style="rounded=1;whiteSpace=wrap;html=1;fontSize=12;" parent="1" vertex="1">
          <mxGeometry x="1060" y="500" width="160" height="20" as="geometry" />
        </mxCell>
        <mxCell id="AJ046ehytsaY92THiT1I-115" value="Bande de valeur" style="rounded=1;whiteSpace=wrap;html=1;fontSize=12;" parent="1" vertex="1">
          <mxGeometry x="1060" y="540" width="160" height="20" as="geometry" />
        </mxCell>
        <mxCell id="AJ046ehytsaY92THiT1I-117" value="Compteur temporel" style="rounded=0;orthogonalLoop=1;jettySize=auto;html=1;entryX=0;entryY=0.5;entryDx=0;entryDy=0;align=left;verticalAlign=bottom;" parent="1" source="AJ046ehytsaY92THiT1I-116" target="AJ046ehytsaY92THiT1I-114" edge="1">
          <mxGeometry x="0.1752" relative="1" as="geometry">
            <Array as="points">
              <mxPoint x="880" y="240" />
              <mxPoint x="880" y="510" />
            </Array>
            <mxPoint as="offset" />
          </mxGeometry>
        </mxCell>
        <mxCell id="AJ046ehytsaY92THiT1I-118" value="Autrement" style="rounded=0;orthogonalLoop=1;jettySize=auto;html=1;align=left;verticalAlign=bottom;" parent="1" source="AJ046ehytsaY92THiT1I-116" target="AJ046ehytsaY92THiT1I-115" edge="1">
          <mxGeometry x="0.1709" relative="1" as="geometry">
            <Array as="points">
              <mxPoint x="850" y="240" />
              <mxPoint x="850" y="550" />
            </Array>
            <mxPoint as="offset" />
          </mxGeometry>
        </mxCell>
        <mxCell id="AJ046ehytsaY92THiT1I-116" value="SI" style="whiteSpace=wrap;html=1;shape=rhombus;perimeter=rhombusPerimeter;fontSize=12;" parent="1" vertex="1">
          <mxGeometry x="845" y="200" width="40" height="40" as="geometry" />
        </mxCell>
        <mxCell id="AJ046ehytsaY92THiT1I-120" value="Barre ordonnée" style="rounded=1;whiteSpace=wrap;html=1;fontSize=12;" parent="1" vertex="1">
          <mxGeometry x="640" y="130" width="160" height="20" as="geometry" />
        </mxCell>
        <mxCell id="AJ046ehytsaY92THiT1I-121" value="Lollipop" style="rounded=1;whiteSpace=wrap;html=1;fontSize=12;" parent="1" vertex="1">
          <mxGeometry x="640" y="170" width="160" height="20" as="geometry" />
        </mxCell>
        <mxCell id="AJ046ehytsaY92THiT1I-122" value="Haltères" style="rounded=1;whiteSpace=wrap;html=1;fontSize=12;" parent="1" vertex="1">
          <mxGeometry x="640" y="210" width="160" height="20" as="geometry" />
        </mxCell>
        <mxCell id="AJ046ehytsaY92THiT1I-123" value="Bosses" style="rounded=1;whiteSpace=wrap;html=1;fontSize=12;" parent="1" vertex="1">
          <mxGeometry x="640" y="250" width="160" height="20" as="geometry" />
        </mxCell>
        <mxCell id="AJ046ehytsaY92THiT1I-124" value="Pente" style="rounded=1;whiteSpace=wrap;html=1;fontSize=12;" parent="1" vertex="1">
          <mxGeometry x="640" y="370" width="160" height="20" as="geometry" />
        </mxCell>
        <mxCell id="AJ046ehytsaY92THiT1I-125" value="Barre empilée" style="rounded=1;whiteSpace=wrap;html=1;fontSize=12;" parent="1" vertex="1">
          <mxGeometry x="640" y="290" width="160" height="20" as="geometry" />
        </mxCell>
        <mxCell id="AJ046ehytsaY92THiT1I-126" value="Barre jumelée" style="rounded=1;whiteSpace=wrap;html=1;fontSize=12;" parent="1" vertex="1">
          <mxGeometry x="640" y="330" width="160" height="20" as="geometry" />
        </mxCell>
        <mxCell id="AJ046ehytsaY92THiT1I-127" value="Coordonnées Paralleles" style="rounded=1;whiteSpace=wrap;html=1;fontSize=12;" parent="1" vertex="1">
          <mxGeometry x="640" y="410" width="160" height="20" as="geometry" />
        </mxCell>
        <mxCell id="AJ046ehytsaY92THiT1I-128" value="Radar" style="rounded=1;whiteSpace=wrap;html=1;fontSize=12;" parent="1" vertex="1">
          <mxGeometry x="640" y="450" width="160" height="20" as="geometry" />
        </mxCell>
        <mxCell id="AJ046ehytsaY92THiT1I-129" value="Ligne de crête" style="rounded=1;whiteSpace=wrap;html=1;fontSize=12;" parent="1" vertex="1">
          <mxGeometry x="640" y="490" width="160" height="20" as="geometry" />
        </mxCell>
        <mxCell id="AJ046ehytsaY92THiT1I-130" value="Matrice de graphique" style="rounded=1;whiteSpace=wrap;html=1;fontSize=12;" parent="1" vertex="1">
          <mxGeometry x="640" y="530" width="160" height="20" as="geometry" />
        </mxCell>
        <mxCell id="AJ046ehytsaY92THiT1I-132" value="Camembert" style="rounded=1;whiteSpace=wrap;html=1;fontSize=12;arcSize=24;" parent="1" vertex="1">
          <mxGeometry x="1060" y="-280" width="160" height="20" as="geometry" />
        </mxCell>
        <mxCell id="AJ046ehytsaY92THiT1I-133" value="Donut" style="rounded=1;whiteSpace=wrap;html=1;fontSize=12;" parent="1" vertex="1">
          <mxGeometry x="1060" y="-241.5" width="160" height="20" as="geometry" />
        </mxCell>
        <mxCell id="AJ046ehytsaY92THiT1I-134" value="Marimeko" style="rounded=1;whiteSpace=wrap;html=1;fontSize=12;" parent="1" vertex="1">
          <mxGeometry x="1060" y="-121.5" width="160" height="20" as="geometry" />
        </mxCell>
        <mxCell id="AJ046ehytsaY92THiT1I-135" value="Quadrillage" style="rounded=1;whiteSpace=wrap;html=1;fontSize=12;" parent="1" vertex="1">
          <mxGeometry x="1060" y="-200" width="160" height="20" as="geometry" />
        </mxCell>
        <mxCell id="AJ046ehytsaY92THiT1I-136" value="Treemap" style="rounded=1;whiteSpace=wrap;html=1;fontSize=12;" parent="1" vertex="1">
          <mxGeometry x="1060" y="-160" width="160" height="20" as="geometry" />
        </mxCell>
        <mxCell id="AJ046ehytsaY92THiT1I-137" value="Voronoi" style="rounded=1;whiteSpace=wrap;html=1;fontSize=12;" parent="1" vertex="1">
          <mxGeometry x="1060" y="-80" width="160" height="20" as="geometry" />
        </mxCell>
        <mxCell id="AJ046ehytsaY92THiT1I-138" value="Sankey" style="rounded=1;whiteSpace=wrap;html=1;fontSize=12;" parent="1" vertex="1">
          <mxGeometry x="1460" y="-160" width="160" height="20" as="geometry" />
        </mxCell>
        <mxCell id="AJ046ehytsaY92THiT1I-139" value="Alluvial" style="rounded=1;whiteSpace=wrap;html=1;fontSize=12;" parent="1" vertex="1">
          <mxGeometry x="1460" y="-120" width="160" height="20" as="geometry" />
        </mxCell>
        <mxCell id="AJ046ehytsaY92THiT1I-140" value="Nuage de mots" style="rounded=1;whiteSpace=wrap;html=1;fontSize=12;" parent="1" vertex="1">
          <mxGeometry x="1060" y="-40" width="160" height="20" as="geometry" />
        </mxCell>
        <mxCell id="AJ046ehytsaY92THiT1I-142" value="Marqueur" style="rounded=1;whiteSpace=wrap;html=1;fontSize=12;" parent="1" vertex="1">
          <mxGeometry x="640" y="-258.5" width="160" height="20" as="geometry" />
        </mxCell>
        <mxCell id="AJ046ehytsaY92THiT1I-143" value="Tiret" style="rounded=1;whiteSpace=wrap;html=1;fontSize=12;" parent="1" vertex="1">
          <mxGeometry x="640" y="-218.5" width="160" height="20" as="geometry" />
        </mxCell>
        <mxCell id="AJ046ehytsaY92THiT1I-144" value="Minigraphe" style="rounded=1;whiteSpace=wrap;html=1;fontSize=12;" parent="1" vertex="1">
          <mxGeometry x="640" y="-300" width="160" height="20" as="geometry" />
        </mxCell>
        <mxCell id="AJ046ehytsaY92THiT1I-147" value="Pareto" style="rounded=1;whiteSpace=wrap;html=1;fontSize=12;" parent="1" vertex="1">
          <mxGeometry x="240" y="280" width="160" height="20" as="geometry" />
        </mxCell>
        <mxCell id="AJ046ehytsaY92THiT1I-148" value="Nuage de point" style="rounded=1;whiteSpace=wrap;html=1;fontSize=12;" parent="1" vertex="1">
          <mxGeometry x="240" y="320" width="160" height="20" as="geometry" />
        </mxCell>
        <mxCell id="AJ046ehytsaY92THiT1I-149" value="Carte de température" style="rounded=1;whiteSpace=wrap;html=1;fontSize=12;" parent="1" vertex="1">
          <mxGeometry x="240" y="440" width="160" height="20" as="geometry" />
        </mxCell>
        <mxCell id="AJ046ehytsaY92THiT1I-150" value="Nuage de bulle" style="rounded=1;whiteSpace=wrap;html=1;fontSize=12;" parent="1" vertex="1">
          <mxGeometry x="240" y="360" width="160" height="20" as="geometry" />
        </mxCell>
        <mxCell id="AJ046ehytsaY92THiT1I-151" value="Matrice de bulle" style="rounded=1;whiteSpace=wrap;html=1;fontSize=12;" parent="1" vertex="1">
          <mxGeometry x="240" y="400" width="160" height="20" as="geometry" />
        </mxCell>
        <mxCell id="AJ046ehytsaY92THiT1I-152" value="Arbre de mots" style="rounded=1;whiteSpace=wrap;html=1;fontSize=12;" parent="1" vertex="1">
          <mxGeometry x="240" y="520" width="160" height="20" as="geometry" />
        </mxCell>
        <mxCell id="AJ046ehytsaY92THiT1I-154" value="Barre divergente" style="rounded=1;whiteSpace=wrap;html=1;fontSize=12;" parent="1" vertex="1">
          <mxGeometry x="1460" y="-280" width="160" height="20" as="geometry" />
        </mxCell>
        <mxCell id="AJ046ehytsaY92THiT1I-155" value="Colonne vertébrale" style="rounded=1;whiteSpace=wrap;html=1;fontSize=12;" parent="1" vertex="1">
          <mxGeometry x="240" y="480" width="160" height="20" as="geometry" />
        </mxCell>
        <mxCell id="AJ046ehytsaY92THiT1I-156" value="Chandelier" style="rounded=1;whiteSpace=wrap;html=1;fontSize=12;" parent="1" vertex="1">
          <mxGeometry x="1460" y="-40" width="160" height="20" as="geometry" />
        </mxCell>
        <mxCell id="AJ046ehytsaY92THiT1I-157" value="Barre divergente empilée" style="rounded=1;whiteSpace=wrap;html=1;fontSize=12;" parent="1" vertex="1">
          <mxGeometry x="1460" y="-240" width="160" height="20" as="geometry" />
        </mxCell>
        <mxCell id="AJ046ehytsaY92THiT1I-158" value="Cascade" style="rounded=1;whiteSpace=wrap;html=1;fontSize=12;" parent="1" vertex="1">
          <mxGeometry x="1460" y="-80" width="160" height="20" as="geometry" />
        </mxCell>
        <mxCell id="AJ046ehytsaY92THiT1I-159" value="Nuage de point connecté" style="rounded=1;whiteSpace=wrap;html=1;fontSize=12;" parent="1" vertex="1">
          <mxGeometry x="1460" y="-200" width="160" height="20" as="geometry" />
        </mxCell>
        <mxCell id="AJ046ehytsaY92THiT1I-172" style="rounded=0;orthogonalLoop=1;jettySize=auto;html=1;" parent="1" source="AJ046ehytsaY92THiT1I-171" target="AJ046ehytsaY92THiT1I-22" edge="1">
          <mxGeometry relative="1" as="geometry" />
        </mxCell>
        <mxCell id="AJ046ehytsaY92THiT1I-171" value="Distribution" style="shape=process;whiteSpace=wrap;html=1;backgroundOutline=1;" parent="1" vertex="1">
          <mxGeometry x="880" y="40" width="120" height="40" as="geometry" />
        </mxCell>
        <mxCell id="AJ046ehytsaY92THiT1I-173" value="Evolution" style="shape=process;whiteSpace=wrap;html=1;backgroundOutline=1;" parent="1" vertex="1">
          <mxGeometry x="1280" y="40" width="120" height="40" as="geometry" />
        </mxCell>
        <mxCell id="xnAuZX6ri1w0qkAMUL14-37" style="edgeStyle=none;shape=connector;rounded=0;orthogonalLoop=1;jettySize=auto;html=1;strokeColor=default;align=left;verticalAlign=bottom;fontFamily=Helvetica;fontSize=11;fontColor=default;labelBackgroundColor=default;endArrow=classic;" edge="1" parent="1" source="AJ046ehytsaY92THiT1I-195" target="AJ046ehytsaY92THiT1I-123">
          <mxGeometry relative="1" as="geometry">
            <Array as="points">
              <mxPoint x="580" y="260" />
            </Array>
          </mxGeometry>
        </mxCell>
        <mxCell id="xnAuZX6ri1w0qkAMUL14-38" style="edgeStyle=none;shape=connector;rounded=0;orthogonalLoop=1;jettySize=auto;html=1;strokeColor=default;align=left;verticalAlign=bottom;fontFamily=Helvetica;fontSize=11;fontColor=default;labelBackgroundColor=default;endArrow=classic;" edge="1" parent="1" source="AJ046ehytsaY92THiT1I-195" target="AJ046ehytsaY92THiT1I-122">
          <mxGeometry relative="1" as="geometry">
            <Array as="points">
              <mxPoint x="580" y="220" />
            </Array>
          </mxGeometry>
        </mxCell>
        <mxCell id="xnAuZX6ri1w0qkAMUL14-39" style="edgeStyle=none;shape=connector;rounded=0;orthogonalLoop=1;jettySize=auto;html=1;strokeColor=default;align=left;verticalAlign=bottom;fontFamily=Helvetica;fontSize=11;fontColor=default;labelBackgroundColor=default;endArrow=classic;" edge="1" parent="1" source="AJ046ehytsaY92THiT1I-195" target="AJ046ehytsaY92THiT1I-121">
          <mxGeometry relative="1" as="geometry">
            <Array as="points">
              <mxPoint x="580" y="180" />
            </Array>
          </mxGeometry>
        </mxCell>
        <mxCell id="xnAuZX6ri1w0qkAMUL14-40" style="edgeStyle=none;shape=connector;rounded=0;orthogonalLoop=1;jettySize=auto;html=1;strokeColor=default;align=left;verticalAlign=bottom;fontFamily=Helvetica;fontSize=11;fontColor=default;labelBackgroundColor=default;endArrow=classic;" edge="1" parent="1" source="AJ046ehytsaY92THiT1I-195" target="AJ046ehytsaY92THiT1I-120">
          <mxGeometry relative="1" as="geometry">
            <Array as="points">
              <mxPoint x="580" y="140" />
            </Array>
          </mxGeometry>
        </mxCell>
        <mxCell id="AJ046ehytsaY92THiT1I-195" value="SI" style="whiteSpace=wrap;html=1;shape=rhombus;perimeter=rhombusPerimeter;fontSize=12;" parent="1" vertex="1">
          <mxGeometry x="540" y="180" width="40" height="40" as="geometry" />
        </mxCell>
        <mxCell id="xnAuZX6ri1w0qkAMUL14-68" style="edgeStyle=none;shape=connector;rounded=0;orthogonalLoop=1;jettySize=auto;html=1;strokeColor=default;align=left;verticalAlign=bottom;fontFamily=Helvetica;fontSize=11;fontColor=default;labelBackgroundColor=default;endArrow=classic;" edge="1" parent="1" source="AJ046ehytsaY92THiT1I-196" target="AJ046ehytsaY92THiT1I-201">
          <mxGeometry relative="1" as="geometry" />
        </mxCell>
        <mxCell id="AJ046ehytsaY92THiT1I-196" value="Correlation" style="shape=process;whiteSpace=wrap;html=1;backgroundOutline=1;" parent="1" vertex="1">
          <mxGeometry x="40" y="40" width="120" height="40" as="geometry" />
        </mxCell>
        <mxCell id="xnAuZX6ri1w0qkAMUL14-29" style="edgeStyle=none;shape=connector;rounded=0;orthogonalLoop=1;jettySize=auto;html=1;strokeColor=default;align=left;verticalAlign=bottom;fontFamily=Helvetica;fontSize=11;fontColor=default;labelBackgroundColor=default;endArrow=classic;" edge="1" parent="1" source="AJ046ehytsaY92THiT1I-197" target="AJ046ehytsaY92THiT1I-203">
          <mxGeometry relative="1" as="geometry" />
        </mxCell>
        <mxCell id="AJ046ehytsaY92THiT1I-197" value="Déviation" style="shape=process;whiteSpace=wrap;html=1;backgroundOutline=1;" parent="1" vertex="1">
          <mxGeometry x="1280" y="-560" width="120" height="40" as="geometry" />
        </mxCell>
        <mxCell id="xnAuZX6ri1w0qkAMUL14-55" style="edgeStyle=none;shape=connector;rounded=0;orthogonalLoop=1;jettySize=auto;html=1;strokeColor=default;align=left;verticalAlign=bottom;fontFamily=Helvetica;fontSize=11;fontColor=default;labelBackgroundColor=default;endArrow=classic;" edge="1" parent="1" source="AJ046ehytsaY92THiT1I-198" target="AJ046ehytsaY92THiT1I-199">
          <mxGeometry relative="1" as="geometry" />
        </mxCell>
        <mxCell id="AJ046ehytsaY92THiT1I-198" value="Classement" style="shape=process;whiteSpace=wrap;html=1;backgroundOutline=1;" parent="1" vertex="1">
          <mxGeometry x="430" y="40" width="120" height="40" as="geometry" />
        </mxCell>
        <mxCell id="xnAuZX6ri1w0qkAMUL14-51" style="edgeStyle=none;shape=connector;rounded=0;orthogonalLoop=1;jettySize=auto;html=1;strokeColor=default;align=left;verticalAlign=bottom;fontFamily=Helvetica;fontSize=11;fontColor=default;labelBackgroundColor=default;endArrow=classic;" edge="1" parent="1" source="AJ046ehytsaY92THiT1I-199" target="AJ046ehytsaY92THiT1I-195">
          <mxGeometry relative="1" as="geometry">
            <Array as="points">
              <mxPoint x="520" y="150" />
              <mxPoint x="520" y="200" />
            </Array>
          </mxGeometry>
        </mxCell>
        <mxCell id="xnAuZX6ri1w0qkAMUL14-52" style="edgeStyle=none;shape=connector;rounded=0;orthogonalLoop=1;jettySize=auto;html=1;strokeColor=default;align=left;verticalAlign=bottom;fontFamily=Helvetica;fontSize=11;fontColor=default;labelBackgroundColor=default;endArrow=classic;" edge="1" parent="1" source="AJ046ehytsaY92THiT1I-199" target="xnAuZX6ri1w0qkAMUL14-41">
          <mxGeometry relative="1" as="geometry">
            <Array as="points">
              <mxPoint x="500" y="150" />
              <mxPoint x="500" y="320" />
            </Array>
          </mxGeometry>
        </mxCell>
        <mxCell id="xnAuZX6ri1w0qkAMUL14-53" style="edgeStyle=none;shape=connector;rounded=0;orthogonalLoop=1;jettySize=auto;html=1;strokeColor=default;align=left;verticalAlign=bottom;fontFamily=Helvetica;fontSize=11;fontColor=default;labelBackgroundColor=default;endArrow=classic;" edge="1" parent="1" source="AJ046ehytsaY92THiT1I-199" target="xnAuZX6ri1w0qkAMUL14-44">
          <mxGeometry relative="1" as="geometry">
            <Array as="points">
              <mxPoint x="480" y="150" />
              <mxPoint x="480" y="420" />
            </Array>
          </mxGeometry>
        </mxCell>
        <mxCell id="xnAuZX6ri1w0qkAMUL14-54" style="edgeStyle=none;shape=connector;rounded=0;orthogonalLoop=1;jettySize=auto;html=1;strokeColor=default;align=left;verticalAlign=bottom;fontFamily=Helvetica;fontSize=11;fontColor=default;labelBackgroundColor=default;endArrow=classic;" edge="1" parent="1" source="AJ046ehytsaY92THiT1I-199" target="xnAuZX6ri1w0qkAMUL14-48">
          <mxGeometry relative="1" as="geometry">
            <Array as="points">
              <mxPoint x="460" y="150" />
              <mxPoint x="460" y="520" />
            </Array>
          </mxGeometry>
        </mxCell>
        <mxCell id="AJ046ehytsaY92THiT1I-199" value="SI" style="whiteSpace=wrap;html=1;shape=rhombus;perimeter=rhombusPerimeter;fontSize=12;" parent="1" vertex="1">
          <mxGeometry x="470" y="110" width="40" height="40" as="geometry" />
        </mxCell>
        <mxCell id="xnAuZX6ri1w0qkAMUL14-58" style="edgeStyle=none;shape=connector;rounded=0;orthogonalLoop=1;jettySize=auto;html=1;strokeColor=default;align=left;verticalAlign=bottom;fontFamily=Helvetica;fontSize=11;fontColor=default;labelBackgroundColor=default;endArrow=classic;" edge="1" parent="1" source="AJ046ehytsaY92THiT1I-200" target="AJ046ehytsaY92THiT1I-148">
          <mxGeometry relative="1" as="geometry">
            <Array as="points">
              <mxPoint x="140" y="240" />
              <mxPoint x="140" y="330" />
            </Array>
          </mxGeometry>
        </mxCell>
        <mxCell id="xnAuZX6ri1w0qkAMUL14-59" style="edgeStyle=none;shape=connector;rounded=0;orthogonalLoop=1;jettySize=auto;html=1;strokeColor=default;align=left;verticalAlign=bottom;fontFamily=Helvetica;fontSize=11;fontColor=default;labelBackgroundColor=default;endArrow=classic;" edge="1" parent="1" source="AJ046ehytsaY92THiT1I-200" target="AJ046ehytsaY92THiT1I-150">
          <mxGeometry relative="1" as="geometry">
            <Array as="points">
              <mxPoint x="110" y="240" />
              <mxPoint x="110" y="370" />
            </Array>
          </mxGeometry>
        </mxCell>
        <mxCell id="AJ046ehytsaY92THiT1I-200" value="SI" style="whiteSpace=wrap;html=1;shape=rhombus;perimeter=rhombusPerimeter;fontSize=12;" parent="1" vertex="1">
          <mxGeometry x="105" y="200" width="40" height="40" as="geometry" />
        </mxCell>
        <mxCell id="xnAuZX6ri1w0qkAMUL14-64" value="Lien&lt;div&gt;sémantique&lt;/div&gt;" style="edgeStyle=none;shape=connector;rounded=0;orthogonalLoop=1;jettySize=auto;html=1;strokeColor=default;align=left;verticalAlign=bottom;fontFamily=Helvetica;fontSize=11;fontColor=default;labelBackgroundColor=none;endArrow=classic;" edge="1" parent="1" source="AJ046ehytsaY92THiT1I-201" target="AJ046ehytsaY92THiT1I-152">
          <mxGeometry x="-0.7989" y="-14" relative="1" as="geometry">
            <Array as="points">
              <mxPoint x="20" y="160" />
              <mxPoint x="20" y="530" />
            </Array>
            <mxPoint x="4" y="-10" as="offset" />
          </mxGeometry>
        </mxCell>
        <mxCell id="xnAuZX6ri1w0qkAMUL14-65" value="Lien&lt;div&gt;causal&lt;/div&gt;" style="edgeStyle=none;shape=connector;rounded=0;orthogonalLoop=1;jettySize=auto;html=1;strokeColor=default;align=left;verticalAlign=bottom;fontFamily=Helvetica;fontSize=11;fontColor=default;labelBackgroundColor=none;endArrow=classic;" edge="1" parent="1" source="AJ046ehytsaY92THiT1I-201" target="AJ046ehytsaY92THiT1I-147">
          <mxGeometry x="-0.8049" y="1" relative="1" as="geometry">
            <Array as="points">
              <mxPoint x="170" y="160" />
              <mxPoint x="170" y="290" />
            </Array>
            <mxPoint as="offset" />
          </mxGeometry>
        </mxCell>
        <mxCell id="xnAuZX6ri1w0qkAMUL14-66" style="edgeStyle=none;shape=connector;rounded=0;orthogonalLoop=1;jettySize=auto;html=1;strokeColor=default;align=left;verticalAlign=bottom;fontFamily=Helvetica;fontSize=11;fontColor=default;labelBackgroundColor=default;endArrow=classic;" edge="1" parent="1" source="AJ046ehytsaY92THiT1I-201" target="AJ046ehytsaY92THiT1I-200">
          <mxGeometry relative="1" as="geometry">
            <Array as="points">
              <mxPoint x="125" y="160" />
            </Array>
          </mxGeometry>
        </mxCell>
        <mxCell id="xnAuZX6ri1w0qkAMUL14-67" style="edgeStyle=none;shape=connector;rounded=0;orthogonalLoop=1;jettySize=auto;html=1;strokeColor=default;align=left;verticalAlign=bottom;fontFamily=Helvetica;fontSize=11;fontColor=default;labelBackgroundColor=default;endArrow=classic;" edge="1" parent="1" source="AJ046ehytsaY92THiT1I-201" target="xnAuZX6ri1w0qkAMUL14-61">
          <mxGeometry relative="1" as="geometry">
            <Array as="points">
              <mxPoint x="65" y="160" />
            </Array>
          </mxGeometry>
        </mxCell>
        <mxCell id="AJ046ehytsaY92THiT1I-201" value="SI" style="whiteSpace=wrap;html=1;shape=rhombus;perimeter=rhombusPerimeter;fontSize=12;" parent="1" vertex="1">
          <mxGeometry x="80" y="120" width="40" height="40" as="geometry" />
        </mxCell>
        <mxCell id="xnAuZX6ri1w0qkAMUL14-21" style="edgeStyle=none;shape=connector;rounded=0;orthogonalLoop=1;jettySize=auto;html=1;strokeColor=default;align=left;verticalAlign=bottom;fontFamily=Helvetica;fontSize=11;fontColor=default;labelBackgroundColor=default;endArrow=classic;" edge="1" parent="1" source="xnAuZX6ri1w0qkAMUL14-35" target="AJ046ehytsaY92THiT1I-159">
          <mxGeometry relative="1" as="geometry">
            <mxPoint x="1289.8113207547171" y="-369.8113207547169" as="sourcePoint" />
            <Array as="points">
              <mxPoint x="1370" y="-360" />
              <mxPoint x="1370" y="-190" />
            </Array>
          </mxGeometry>
        </mxCell>
        <mxCell id="xnAuZX6ri1w0qkAMUL14-22" style="edgeStyle=none;shape=connector;rounded=0;orthogonalLoop=1;jettySize=auto;html=1;strokeColor=default;align=left;verticalAlign=bottom;fontFamily=Helvetica;fontSize=11;fontColor=default;labelBackgroundColor=default;endArrow=classic;" edge="1" parent="1" source="xnAuZX6ri1w0qkAMUL14-35" target="AJ046ehytsaY92THiT1I-138">
          <mxGeometry relative="1" as="geometry">
            <mxPoint x="1289.122807017544" y="-369.1228070175438" as="sourcePoint" />
            <Array as="points">
              <mxPoint x="1340" y="-150" />
            </Array>
          </mxGeometry>
        </mxCell>
        <mxCell id="xnAuZX6ri1w0qkAMUL14-23" style="edgeStyle=none;shape=connector;rounded=0;orthogonalLoop=1;jettySize=auto;html=1;strokeColor=default;align=left;verticalAlign=bottom;fontFamily=Helvetica;fontSize=11;fontColor=default;labelBackgroundColor=default;endArrow=classic;" edge="1" parent="1" source="xnAuZX6ri1w0qkAMUL14-35" target="AJ046ehytsaY92THiT1I-139">
          <mxGeometry relative="1" as="geometry">
            <mxPoint x="1288.3870967741937" y="-368.38709677419354" as="sourcePoint" />
            <Array as="points">
              <mxPoint x="1310" y="-360" />
              <mxPoint x="1310" y="-110" />
            </Array>
          </mxGeometry>
        </mxCell>
        <mxCell id="xnAuZX6ri1w0qkAMUL14-24" value="Flux" style="edgeStyle=none;shape=connector;rounded=0;orthogonalLoop=1;jettySize=auto;html=1;strokeColor=default;align=left;verticalAlign=bottom;fontFamily=Helvetica;fontSize=11;fontColor=default;labelBackgroundColor=default;endArrow=classic;" edge="1" parent="1" source="AJ046ehytsaY92THiT1I-203" target="xnAuZX6ri1w0qkAMUL14-36">
          <mxGeometry x="0.8025" relative="1" as="geometry">
            <mxPoint x="1308.5714285714284" y="-391.42857142857133" as="targetPoint" />
            <Array as="points">
              <mxPoint x="1265" y="-440" />
            </Array>
            <mxPoint as="offset" />
          </mxGeometry>
        </mxCell>
        <mxCell id="xnAuZX6ri1w0qkAMUL14-26" value="Stock" style="edgeStyle=none;shape=connector;rounded=0;orthogonalLoop=1;jettySize=auto;html=1;strokeColor=default;align=left;verticalAlign=bottom;fontFamily=Helvetica;fontSize=11;fontColor=default;labelBackgroundColor=default;endArrow=classic;" edge="1" parent="1" source="AJ046ehytsaY92THiT1I-203" target="xnAuZX6ri1w0qkAMUL14-35">
          <mxGeometry x="0.5" relative="1" as="geometry">
            <mxPoint as="offset" />
          </mxGeometry>
        </mxCell>
        <mxCell id="xnAuZX6ri1w0qkAMUL14-33" value="Autrement" style="edgeStyle=none;shape=connector;rounded=0;orthogonalLoop=1;jettySize=auto;html=1;strokeColor=default;align=left;verticalAlign=bottom;fontFamily=Helvetica;fontSize=11;fontColor=default;labelBackgroundColor=default;endArrow=classic;" edge="1" parent="1" source="AJ046ehytsaY92THiT1I-203" target="xnAuZX6ri1w0qkAMUL14-34">
          <mxGeometry x="0.8025" relative="1" as="geometry">
            <Array as="points">
              <mxPoint x="1415" y="-440" />
            </Array>
            <mxPoint as="offset" />
          </mxGeometry>
        </mxCell>
        <mxCell id="AJ046ehytsaY92THiT1I-203" value="SI" style="whiteSpace=wrap;html=1;shape=rhombus;perimeter=rhombusPerimeter;fontSize=12;" parent="1" vertex="1">
          <mxGeometry x="1320" y="-480" width="40" height="40" as="geometry" />
        </mxCell>
        <mxCell id="xnAuZX6ri1w0qkAMUL14-10" style="edgeStyle=none;shape=connector;rounded=0;orthogonalLoop=1;jettySize=auto;html=1;strokeColor=default;align=left;verticalAlign=bottom;fontFamily=Helvetica;fontSize=11;fontColor=default;labelBackgroundColor=default;endArrow=classic;" edge="1" parent="1" source="AJ046ehytsaY92THiT1I-204" target="AJ046ehytsaY92THiT1I-135">
          <mxGeometry relative="1" as="geometry">
            <Array as="points">
              <mxPoint x="960" y="-360" />
              <mxPoint x="960" y="-190" />
            </Array>
          </mxGeometry>
        </mxCell>
        <mxCell id="xnAuZX6ri1w0qkAMUL14-11" style="edgeStyle=none;shape=connector;rounded=0;orthogonalLoop=1;jettySize=auto;html=1;strokeColor=default;align=left;verticalAlign=bottom;fontFamily=Helvetica;fontSize=11;fontColor=default;labelBackgroundColor=default;endArrow=classic;" edge="1" parent="1" source="AJ046ehytsaY92THiT1I-204" target="AJ046ehytsaY92THiT1I-132">
          <mxGeometry relative="1" as="geometry">
            <Array as="points">
              <mxPoint x="1020" y="-360" />
              <mxPoint x="1020" y="-270" />
            </Array>
          </mxGeometry>
        </mxCell>
        <mxCell id="xnAuZX6ri1w0qkAMUL14-13" style="edgeStyle=none;shape=connector;rounded=0;orthogonalLoop=1;jettySize=auto;html=1;strokeColor=default;align=left;verticalAlign=bottom;fontFamily=Helvetica;fontSize=11;fontColor=default;labelBackgroundColor=default;endArrow=classic;" edge="1" parent="1" source="AJ046ehytsaY92THiT1I-204" target="AJ046ehytsaY92THiT1I-133">
          <mxGeometry relative="1" as="geometry">
            <Array as="points">
              <mxPoint x="990" y="-230" />
            </Array>
          </mxGeometry>
        </mxCell>
        <mxCell id="AJ046ehytsaY92THiT1I-204" value="SI" style="whiteSpace=wrap;html=1;shape=rhombus;perimeter=rhombusPerimeter;fontSize=12;" parent="1" vertex="1">
          <mxGeometry x="970" y="-400" width="40" height="40" as="geometry" />
        </mxCell>
        <mxCell id="xnAuZX6ri1w0qkAMUL14-19" style="edgeStyle=none;shape=connector;rounded=0;orthogonalLoop=1;jettySize=auto;html=1;strokeColor=default;align=left;verticalAlign=bottom;fontFamily=Helvetica;fontSize=11;fontColor=default;labelBackgroundColor=default;endArrow=classic;" edge="1" parent="1" source="AJ046ehytsaY92THiT1I-205" target="AJ046ehytsaY92THiT1I-206">
          <mxGeometry relative="1" as="geometry" />
        </mxCell>
        <mxCell id="AJ046ehytsaY92THiT1I-205" value="Composition" style="shape=process;whiteSpace=wrap;html=1;backgroundOutline=1;" parent="1" vertex="1">
          <mxGeometry x="840" y="-560" width="120" height="40" as="geometry" />
        </mxCell>
        <mxCell id="xnAuZX6ri1w0qkAMUL14-9" value="Analyse de texte" style="edgeStyle=none;shape=connector;rounded=0;orthogonalLoop=1;jettySize=auto;html=1;strokeColor=default;align=left;verticalAlign=bottom;fontFamily=Helvetica;fontSize=11;fontColor=default;labelBackgroundColor=default;endArrow=classic;" edge="1" parent="1" source="AJ046ehytsaY92THiT1I-206" target="AJ046ehytsaY92THiT1I-140">
          <mxGeometry x="0.321" relative="1" as="geometry">
            <Array as="points">
              <mxPoint x="840" y="-440" />
              <mxPoint x="840" y="-30" />
            </Array>
            <mxPoint as="offset" />
          </mxGeometry>
        </mxCell>
        <mxCell id="xnAuZX6ri1w0qkAMUL14-12" style="edgeStyle=none;shape=connector;rounded=0;orthogonalLoop=1;jettySize=auto;html=1;strokeColor=default;align=left;verticalAlign=bottom;fontFamily=Helvetica;fontSize=11;fontColor=default;labelBackgroundColor=default;endArrow=classic;" edge="1" parent="1" source="AJ046ehytsaY92THiT1I-206" target="AJ046ehytsaY92THiT1I-204">
          <mxGeometry relative="1" as="geometry">
            <Array as="points">
              <mxPoint x="990" y="-440" />
            </Array>
          </mxGeometry>
        </mxCell>
        <mxCell id="xnAuZX6ri1w0qkAMUL14-18" style="edgeStyle=none;shape=connector;rounded=0;orthogonalLoop=1;jettySize=auto;html=1;strokeColor=default;align=left;verticalAlign=bottom;fontFamily=Helvetica;fontSize=11;fontColor=default;labelBackgroundColor=default;endArrow=classic;" edge="1" parent="1" source="AJ046ehytsaY92THiT1I-206" target="xnAuZX6ri1w0qkAMUL14-14">
          <mxGeometry relative="1" as="geometry" />
        </mxCell>
        <mxCell id="AJ046ehytsaY92THiT1I-206" value="SI" style="whiteSpace=wrap;html=1;shape=rhombus;perimeter=rhombusPerimeter;fontSize=12;" parent="1" vertex="1">
          <mxGeometry x="880" y="-480" width="40" height="40" as="geometry" />
        </mxCell>
        <mxCell id="xnAuZX6ri1w0qkAMUL14-7" style="edgeStyle=none;shape=connector;rounded=0;orthogonalLoop=1;jettySize=auto;html=1;strokeColor=default;align=center;verticalAlign=middle;fontFamily=Helvetica;fontSize=11;fontColor=default;labelBackgroundColor=default;endArrow=classic;" edge="1" parent="1" source="AJ046ehytsaY92THiT1I-208" target="xnAuZX6ri1w0qkAMUL14-6">
          <mxGeometry relative="1" as="geometry" />
        </mxCell>
        <mxCell id="AJ046ehytsaY92THiT1I-208" value="Indicateur" style="shape=process;whiteSpace=wrap;html=1;backgroundOutline=1;" parent="1" vertex="1">
          <mxGeometry x="460" y="-560" width="120" height="40" as="geometry" />
        </mxCell>
        <mxCell id="xnAuZX6ri1w0qkAMUL14-3" value="En texte" style="rounded=0;orthogonalLoop=1;jettySize=auto;html=1;align=left;verticalAlign=bottom;" edge="1" parent="1" source="AJ046ehytsaY92THiT1I-209" target="AJ046ehytsaY92THiT1I-142">
          <mxGeometry x="-0.0176" relative="1" as="geometry">
            <Array as="points">
              <mxPoint x="536" y="-360" />
              <mxPoint x="536" y="-250" />
            </Array>
            <mxPoint as="offset" />
          </mxGeometry>
        </mxCell>
        <mxCell id="xnAuZX6ri1w0qkAMUL14-4" value="Benchmark" style="rounded=0;orthogonalLoop=1;jettySize=auto;html=1;align=left;verticalAlign=bottom;" edge="1" parent="1" source="xnAuZX6ri1w0qkAMUL14-6" target="AJ046ehytsaY92THiT1I-143">
          <mxGeometry x="-0.7463" relative="1" as="geometry">
            <Array as="points">
              <mxPoint x="490" y="-440" />
              <mxPoint x="490" y="-210" />
            </Array>
            <mxPoint as="offset" />
          </mxGeometry>
        </mxCell>
        <mxCell id="xnAuZX6ri1w0qkAMUL14-5" value="Dans un tableur" style="edgeStyle=none;shape=connector;rounded=0;orthogonalLoop=1;jettySize=auto;html=1;strokeColor=default;align=left;verticalAlign=bottom;fontFamily=Helvetica;fontSize=11;fontColor=default;labelBackgroundColor=default;endArrow=classic;" edge="1" parent="1" source="AJ046ehytsaY92THiT1I-209" target="AJ046ehytsaY92THiT1I-144">
          <mxGeometry x="-0.0812" y="4" relative="1" as="geometry">
            <Array as="points">
              <mxPoint x="566" y="-360" />
              <mxPoint x="566" y="-290" />
            </Array>
            <mxPoint as="offset" />
          </mxGeometry>
        </mxCell>
        <mxCell id="AJ046ehytsaY92THiT1I-209" value="SI" style="whiteSpace=wrap;html=1;shape=rhombus;perimeter=rhombusPerimeter;fontSize=12;" parent="1" vertex="1">
          <mxGeometry x="530" y="-400" width="40" height="40" as="geometry" />
        </mxCell>
        <mxCell id="yDpIsOQsYGfe-0x_Q-0t-1" value="Evolution" style="rounded=0;whiteSpace=wrap;html=1;fontSize=12;shape=process;backgroundOutline=1;" parent="1" vertex="1">
          <mxGeometry x="280" y="-38.5" width="120" height="20" as="geometry" />
        </mxCell>
        <mxCell id="yDpIsOQsYGfe-0x_Q-0t-2" value="Déviation" style="rounded=0;whiteSpace=wrap;html=1;fontSize=12;shape=process;backgroundOutline=1;" parent="1" vertex="1">
          <mxGeometry x="280" y="-158.5" width="120" height="20" as="geometry" />
        </mxCell>
        <mxCell id="yDpIsOQsYGfe-0x_Q-0t-3" value="Classement" style="rounded=0;whiteSpace=wrap;html=1;fontSize=12;shape=process;backgroundOutline=1;" parent="1" vertex="1">
          <mxGeometry x="280" y="-198.5" width="120" height="20" as="geometry" />
        </mxCell>
        <mxCell id="yDpIsOQsYGfe-0x_Q-0t-4" value="Composition" style="rounded=0;whiteSpace=wrap;html=1;fontSize=12;shape=process;backgroundOutline=1;" parent="1" vertex="1">
          <mxGeometry x="280" y="-238.5" width="120" height="20" as="geometry" />
        </mxCell>
        <mxCell id="yDpIsOQsYGfe-0x_Q-0t-5" value="Indicateur" style="rounded=0;whiteSpace=wrap;html=1;fontSize=12;shape=process;backgroundOutline=1;" parent="1" vertex="1">
          <mxGeometry x="280" y="-278.5" width="120" height="20" as="geometry" />
        </mxCell>
        <mxCell id="yDpIsOQsYGfe-0x_Q-0t-6" value="Distribution" style="rounded=0;whiteSpace=wrap;html=1;fontSize=12;shape=process;backgroundOutline=1;" parent="1" vertex="1">
          <mxGeometry x="280" y="-118.5" width="120" height="20" as="geometry" />
        </mxCell>
        <mxCell id="yDpIsOQsYGfe-0x_Q-0t-7" value="Correlation" style="rounded=0;whiteSpace=wrap;html=1;fontSize=12;shape=process;backgroundOutline=1;" parent="1" vertex="1">
          <mxGeometry x="280" y="-78.5" width="120" height="20" as="geometry" />
        </mxCell>
        <mxCell id="yDpIsOQsYGfe-0x_Q-0t-8" style="edgeStyle=orthogonalEdgeStyle;rounded=0;orthogonalLoop=1;jettySize=auto;html=1;fontSize=12;" parent="1" source="yDpIsOQsYGfe-0x_Q-0t-9" target="yDpIsOQsYGfe-0x_Q-0t-11" edge="1">
          <mxGeometry relative="1" as="geometry" />
        </mxCell>
        <mxCell id="yDpIsOQsYGfe-0x_Q-0t-9" value="" style="rounded=1;whiteSpace=wrap;html=1;fontSize=12;shape=ellipse;perimeter=ellipsePerimeter;aspect=fixed;" parent="1" vertex="1">
          <mxGeometry x="65" y="-553.5" width="30" height="30" as="geometry" />
        </mxCell>
        <mxCell id="yDpIsOQsYGfe-0x_Q-0t-22" value="NON" style="edgeStyle=orthogonalEdgeStyle;rounded=0;orthogonalLoop=1;jettySize=auto;html=1;align=left;verticalAlign=bottom;entryX=0.5;entryY=0;entryDx=0;entryDy=0;" parent="1" source="yDpIsOQsYGfe-0x_Q-0t-11" target="yDpIsOQsYGfe-0x_Q-0t-20" edge="1">
          <mxGeometry x="-1" relative="1" as="geometry">
            <mxPoint as="offset" />
          </mxGeometry>
        </mxCell>
        <mxCell id="yDpIsOQsYGfe-0x_Q-0t-11" value="Temps&amp;nbsp;&lt;div&gt;Réel ?&lt;/div&gt;" style="rhombus;whiteSpace=wrap;html=1;fontSize=12;" parent="1" vertex="1">
          <mxGeometry x="40" y="-478.5" width="80" height="80" as="geometry" />
        </mxCell>
        <mxCell id="yDpIsOQsYGfe-0x_Q-0t-12" style="edgeStyle=orthogonalEdgeStyle;rounded=0;orthogonalLoop=1;jettySize=auto;html=1;entryX=0;entryY=0.5;entryDx=0;entryDy=0;" parent="1" source="yDpIsOQsYGfe-0x_Q-0t-11" target="yDpIsOQsYGfe-0x_Q-0t-1" edge="1">
          <mxGeometry relative="1" as="geometry">
            <Array as="points">
              <mxPoint x="80" y="-28.5" />
            </Array>
            <mxPoint x="-530" y="-428.5" as="sourcePoint" />
            <mxPoint x="-170" y="-363.5" as="targetPoint" />
          </mxGeometry>
        </mxCell>
        <mxCell id="yDpIsOQsYGfe-0x_Q-0t-13" value="OUI" style="edgeLabel;html=1;align=left;verticalAlign=bottom;resizable=0;points=[];" parent="yDpIsOQsYGfe-0x_Q-0t-12" vertex="1" connectable="0">
          <mxGeometry x="0.0593" y="2" relative="1" as="geometry">
            <mxPoint x="-2" y="-277" as="offset" />
          </mxGeometry>
        </mxCell>
        <mxCell id="yDpIsOQsYGfe-0x_Q-0t-14" value="Suivre un point précis" style="rounded=0;orthogonalLoop=1;jettySize=auto;html=1;align=left;verticalAlign=bottom;entryX=0;entryY=0.5;entryDx=0;entryDy=0;" parent="1" source="yDpIsOQsYGfe-0x_Q-0t-20" target="yDpIsOQsYGfe-0x_Q-0t-5" edge="1">
          <mxGeometry x="0.5217" relative="1" as="geometry">
            <Array as="points">
              <mxPoint x="260" y="-318.5" />
              <mxPoint x="260" y="-268.5" />
            </Array>
            <mxPoint as="offset" />
            <mxPoint x="440" y="-513.5" as="targetPoint" />
          </mxGeometry>
        </mxCell>
        <mxCell id="yDpIsOQsYGfe-0x_Q-0t-15" value="Identifer une partie d&#39;un ensemble" style="rounded=0;orthogonalLoop=1;jettySize=auto;html=1;align=left;verticalAlign=bottom;entryX=0;entryY=0.5;entryDx=0;entryDy=0;" parent="1" source="yDpIsOQsYGfe-0x_Q-0t-20" target="yDpIsOQsYGfe-0x_Q-0t-4" edge="1">
          <mxGeometry x="0.3018" relative="1" as="geometry">
            <Array as="points">
              <mxPoint x="230" y="-318.5" />
              <mxPoint x="230" y="-228.5" />
            </Array>
            <mxPoint as="offset" />
            <mxPoint x="440" y="-483.5" as="targetPoint" />
          </mxGeometry>
        </mxCell>
        <mxCell id="yDpIsOQsYGfe-0x_Q-0t-16" value="Ordonner des catégories" style="rounded=0;orthogonalLoop=1;jettySize=auto;html=1;align=left;verticalAlign=bottom;entryX=0;entryY=0.5;entryDx=0;entryDy=0;" parent="1" source="yDpIsOQsYGfe-0x_Q-0t-20" target="yDpIsOQsYGfe-0x_Q-0t-3" edge="1">
          <mxGeometry x="0.1879" relative="1" as="geometry">
            <Array as="points">
              <mxPoint x="200" y="-318.5" />
              <mxPoint x="200" y="-188.5" />
            </Array>
            <mxPoint as="offset" />
            <mxPoint x="440" y="-453.5" as="targetPoint" />
          </mxGeometry>
        </mxCell>
        <mxCell id="yDpIsOQsYGfe-0x_Q-0t-17" value="Suivre une tendance" style="rounded=0;orthogonalLoop=1;jettySize=auto;html=1;align=left;verticalAlign=bottom;entryX=0;entryY=0.5;entryDx=0;entryDy=0;" parent="1" source="yDpIsOQsYGfe-0x_Q-0t-20" target="yDpIsOQsYGfe-0x_Q-0t-2" edge="1">
          <mxGeometry x="0.1771" relative="1" as="geometry">
            <Array as="points">
              <mxPoint x="170" y="-318.5" />
              <mxPoint x="170" y="-148.5" />
            </Array>
            <mxPoint as="offset" />
            <mxPoint x="440" y="-423.5" as="targetPoint" />
          </mxGeometry>
        </mxCell>
        <mxCell id="yDpIsOQsYGfe-0x_Q-0t-18" value="Faire des analyses statistiques" style="rounded=0;orthogonalLoop=1;jettySize=auto;html=1;align=left;verticalAlign=bottom;entryX=0;entryY=0.5;entryDx=0;entryDy=0;" parent="1" source="yDpIsOQsYGfe-0x_Q-0t-20" target="yDpIsOQsYGfe-0x_Q-0t-6" edge="1">
          <mxGeometry x="0.2144" relative="1" as="geometry">
            <Array as="points">
              <mxPoint x="140" y="-318.5" />
              <mxPoint x="140" y="-108.5" />
            </Array>
            <mxPoint as="offset" />
            <mxPoint x="440" y="-393.5" as="targetPoint" />
          </mxGeometry>
        </mxCell>
        <mxCell id="yDpIsOQsYGfe-0x_Q-0t-19" value="Associer deux paramètres" style="rounded=0;orthogonalLoop=1;jettySize=auto;html=1;align=left;verticalAlign=bottom;entryX=0;entryY=0.5;entryDx=0;entryDy=0;" parent="1" source="yDpIsOQsYGfe-0x_Q-0t-20" target="yDpIsOQsYGfe-0x_Q-0t-7" edge="1">
          <mxGeometry x="0.2428" relative="1" as="geometry">
            <Array as="points">
              <mxPoint x="110" y="-318.5" />
              <mxPoint x="110" y="-68.5" />
            </Array>
            <mxPoint as="offset" />
            <mxPoint x="440" y="-363.5" as="targetPoint" />
          </mxGeometry>
        </mxCell>
        <mxCell id="yDpIsOQsYGfe-0x_Q-0t-20" value="Objectif ?" style="rhombus;whiteSpace=wrap;html=1;fontSize=12;" parent="1" vertex="1">
          <mxGeometry x="145" y="-398.5" width="80" height="80" as="geometry" />
        </mxCell>
        <mxCell id="xnAuZX6ri1w0qkAMUL14-8" value="Tendance" style="edgeStyle=none;shape=connector;rounded=0;orthogonalLoop=1;jettySize=auto;html=1;strokeColor=default;align=left;verticalAlign=bottom;fontFamily=Helvetica;fontSize=11;fontColor=default;labelBackgroundColor=default;endArrow=classic;" edge="1" parent="1" source="xnAuZX6ri1w0qkAMUL14-6" target="AJ046ehytsaY92THiT1I-209">
          <mxGeometry x="0.6796" relative="1" as="geometry">
            <Array as="points">
              <mxPoint x="550" y="-440" />
            </Array>
            <mxPoint as="offset" />
          </mxGeometry>
        </mxCell>
        <mxCell id="xnAuZX6ri1w0qkAMUL14-6" value="SI" style="whiteSpace=wrap;html=1;shape=rhombus;perimeter=rhombusPerimeter;fontSize=12;" vertex="1" parent="1">
          <mxGeometry x="499" y="-480" width="40" height="40" as="geometry" />
        </mxCell>
        <mxCell id="xnAuZX6ri1w0qkAMUL14-15" style="edgeStyle=none;shape=connector;rounded=0;orthogonalLoop=1;jettySize=auto;html=1;strokeColor=default;align=left;verticalAlign=bottom;fontFamily=Helvetica;fontSize=11;fontColor=default;labelBackgroundColor=default;endArrow=classic;" edge="1" parent="1" source="xnAuZX6ri1w0qkAMUL14-14" target="AJ046ehytsaY92THiT1I-136">
          <mxGeometry relative="1" as="geometry">
            <Array as="points">
              <mxPoint x="930" y="-360" />
              <mxPoint x="930" y="-150" />
            </Array>
          </mxGeometry>
        </mxCell>
        <mxCell id="xnAuZX6ri1w0qkAMUL14-16" style="edgeStyle=none;shape=connector;rounded=0;orthogonalLoop=1;jettySize=auto;html=1;strokeColor=default;align=left;verticalAlign=bottom;fontFamily=Helvetica;fontSize=11;fontColor=default;labelBackgroundColor=default;endArrow=classic;" edge="1" parent="1" source="xnAuZX6ri1w0qkAMUL14-14" target="AJ046ehytsaY92THiT1I-134">
          <mxGeometry relative="1" as="geometry">
            <Array as="points">
              <mxPoint x="900" y="-110" />
            </Array>
          </mxGeometry>
        </mxCell>
        <mxCell id="xnAuZX6ri1w0qkAMUL14-17" style="edgeStyle=none;shape=connector;rounded=0;orthogonalLoop=1;jettySize=auto;html=1;strokeColor=default;align=left;verticalAlign=bottom;fontFamily=Helvetica;fontSize=11;fontColor=default;labelBackgroundColor=default;endArrow=classic;" edge="1" parent="1" source="xnAuZX6ri1w0qkAMUL14-14" target="AJ046ehytsaY92THiT1I-137">
          <mxGeometry relative="1" as="geometry">
            <Array as="points">
              <mxPoint x="870" y="-360" />
              <mxPoint x="870" y="-70" />
            </Array>
          </mxGeometry>
        </mxCell>
        <mxCell id="xnAuZX6ri1w0qkAMUL14-14" value="SI" style="whiteSpace=wrap;html=1;shape=rhombus;perimeter=rhombusPerimeter;fontSize=12;" vertex="1" parent="1">
          <mxGeometry x="880" y="-400" width="40" height="40" as="geometry" />
        </mxCell>
        <mxCell id="xnAuZX6ri1w0qkAMUL14-27" style="edgeStyle=none;shape=connector;rounded=0;orthogonalLoop=1;jettySize=auto;html=1;strokeColor=default;align=left;verticalAlign=bottom;fontFamily=Helvetica;fontSize=11;fontColor=default;labelBackgroundColor=default;endArrow=classic;" edge="1" parent="1" source="xnAuZX6ri1w0qkAMUL14-36" target="AJ046ehytsaY92THiT1I-158">
          <mxGeometry relative="1" as="geometry">
            <mxPoint x="1369.7297297297296" y="-369.7297297297298" as="sourcePoint" />
            <Array as="points">
              <mxPoint x="1280" y="-360" />
              <mxPoint x="1280" y="-70" />
            </Array>
          </mxGeometry>
        </mxCell>
        <mxCell id="xnAuZX6ri1w0qkAMUL14-28" style="edgeStyle=none;shape=connector;rounded=0;orthogonalLoop=1;jettySize=auto;html=1;strokeColor=default;align=left;verticalAlign=bottom;fontFamily=Helvetica;fontSize=11;fontColor=default;labelBackgroundColor=default;endArrow=classic;" edge="1" parent="1" source="xnAuZX6ri1w0qkAMUL14-36" target="AJ046ehytsaY92THiT1I-156">
          <mxGeometry relative="1" as="geometry">
            <mxPoint x="1368.7804878048782" y="-368.78048780487813" as="sourcePoint" />
            <Array as="points">
              <mxPoint x="1250" y="-360" />
              <mxPoint x="1250" y="-30" />
            </Array>
          </mxGeometry>
        </mxCell>
        <mxCell id="xnAuZX6ri1w0qkAMUL14-31" style="edgeStyle=none;shape=connector;rounded=0;orthogonalLoop=1;jettySize=auto;html=1;strokeColor=default;align=left;verticalAlign=bottom;fontFamily=Helvetica;fontSize=11;fontColor=default;labelBackgroundColor=default;endArrow=classic;" edge="1" parent="1" source="xnAuZX6ri1w0qkAMUL14-34" target="AJ046ehytsaY92THiT1I-154">
          <mxGeometry relative="1" as="geometry">
            <mxPoint x="1449.5238095238096" y="-369.5238095238095" as="sourcePoint" />
            <Array as="points">
              <mxPoint x="1430" y="-360" />
              <mxPoint x="1430" y="-270" />
            </Array>
          </mxGeometry>
        </mxCell>
        <mxCell id="xnAuZX6ri1w0qkAMUL14-32" style="edgeStyle=none;shape=connector;rounded=0;orthogonalLoop=1;jettySize=auto;html=1;strokeColor=default;align=left;verticalAlign=bottom;fontFamily=Helvetica;fontSize=11;fontColor=default;labelBackgroundColor=default;endArrow=classic;" edge="1" parent="1" source="xnAuZX6ri1w0qkAMUL14-34" target="AJ046ehytsaY92THiT1I-157">
          <mxGeometry relative="1" as="geometry">
            <mxPoint x="1448" y="-368" as="sourcePoint" />
            <Array as="points">
              <mxPoint x="1400" y="-360" />
              <mxPoint x="1400" y="-230" />
            </Array>
          </mxGeometry>
        </mxCell>
        <mxCell id="xnAuZX6ri1w0qkAMUL14-34" value="SI" style="whiteSpace=wrap;html=1;shape=rhombus;perimeter=rhombusPerimeter;fontSize=12;" vertex="1" parent="1">
          <mxGeometry x="1395" y="-400" width="40" height="40" as="geometry" />
        </mxCell>
        <mxCell id="xnAuZX6ri1w0qkAMUL14-35" value="SI" style="whiteSpace=wrap;html=1;shape=rhombus;perimeter=rhombusPerimeter;fontSize=12;" vertex="1" parent="1">
          <mxGeometry x="1320" y="-400" width="40" height="40" as="geometry" />
        </mxCell>
        <mxCell id="xnAuZX6ri1w0qkAMUL14-36" value="SI" style="whiteSpace=wrap;html=1;shape=rhombus;perimeter=rhombusPerimeter;fontSize=12;" vertex="1" parent="1">
          <mxGeometry x="1245" y="-400" width="40" height="40" as="geometry" />
        </mxCell>
        <mxCell id="xnAuZX6ri1w0qkAMUL14-42" style="edgeStyle=none;shape=connector;rounded=0;orthogonalLoop=1;jettySize=auto;html=1;strokeColor=default;align=left;verticalAlign=bottom;fontFamily=Helvetica;fontSize=11;fontColor=default;labelBackgroundColor=default;endArrow=classic;" edge="1" parent="1" source="xnAuZX6ri1w0qkAMUL14-41" target="AJ046ehytsaY92THiT1I-125">
          <mxGeometry relative="1" as="geometry">
            <Array as="points">
              <mxPoint x="580" y="300" />
            </Array>
          </mxGeometry>
        </mxCell>
        <mxCell id="xnAuZX6ri1w0qkAMUL14-43" style="edgeStyle=none;shape=connector;rounded=0;orthogonalLoop=1;jettySize=auto;html=1;strokeColor=default;align=left;verticalAlign=bottom;fontFamily=Helvetica;fontSize=11;fontColor=default;labelBackgroundColor=default;endArrow=classic;" edge="1" parent="1" source="xnAuZX6ri1w0qkAMUL14-41" target="AJ046ehytsaY92THiT1I-126">
          <mxGeometry relative="1" as="geometry">
            <Array as="points">
              <mxPoint x="580" y="340" />
            </Array>
          </mxGeometry>
        </mxCell>
        <mxCell id="xnAuZX6ri1w0qkAMUL14-41" value="SI" style="whiteSpace=wrap;html=1;shape=rhombus;perimeter=rhombusPerimeter;fontSize=12;" vertex="1" parent="1">
          <mxGeometry x="540" y="300" width="40" height="40" as="geometry" />
        </mxCell>
        <mxCell id="xnAuZX6ri1w0qkAMUL14-45" style="edgeStyle=none;shape=connector;rounded=0;orthogonalLoop=1;jettySize=auto;html=1;strokeColor=default;align=left;verticalAlign=bottom;fontFamily=Helvetica;fontSize=11;fontColor=default;labelBackgroundColor=default;endArrow=classic;" edge="1" parent="1" source="xnAuZX6ri1w0qkAMUL14-44" target="AJ046ehytsaY92THiT1I-127">
          <mxGeometry relative="1" as="geometry" />
        </mxCell>
        <mxCell id="xnAuZX6ri1w0qkAMUL14-46" style="edgeStyle=none;shape=connector;rounded=0;orthogonalLoop=1;jettySize=auto;html=1;strokeColor=default;align=left;verticalAlign=bottom;fontFamily=Helvetica;fontSize=11;fontColor=default;labelBackgroundColor=default;endArrow=classic;" edge="1" parent="1" source="xnAuZX6ri1w0qkAMUL14-44" target="AJ046ehytsaY92THiT1I-124">
          <mxGeometry relative="1" as="geometry">
            <Array as="points">
              <mxPoint x="580" y="380" />
            </Array>
          </mxGeometry>
        </mxCell>
        <mxCell id="xnAuZX6ri1w0qkAMUL14-47" style="edgeStyle=none;shape=connector;rounded=0;orthogonalLoop=1;jettySize=auto;html=1;strokeColor=default;align=left;verticalAlign=bottom;fontFamily=Helvetica;fontSize=11;fontColor=default;labelBackgroundColor=default;endArrow=classic;" edge="1" parent="1" source="xnAuZX6ri1w0qkAMUL14-44" target="AJ046ehytsaY92THiT1I-128">
          <mxGeometry relative="1" as="geometry">
            <Array as="points">
              <mxPoint x="580" y="460" />
            </Array>
          </mxGeometry>
        </mxCell>
        <mxCell id="xnAuZX6ri1w0qkAMUL14-44" value="SI" style="whiteSpace=wrap;html=1;shape=rhombus;perimeter=rhombusPerimeter;fontSize=12;" vertex="1" parent="1">
          <mxGeometry x="540" y="400" width="40" height="40" as="geometry" />
        </mxCell>
        <mxCell id="xnAuZX6ri1w0qkAMUL14-49" style="edgeStyle=none;shape=connector;rounded=0;orthogonalLoop=1;jettySize=auto;html=1;strokeColor=default;align=left;verticalAlign=bottom;fontFamily=Helvetica;fontSize=11;fontColor=default;labelBackgroundColor=default;endArrow=classic;" edge="1" parent="1" source="xnAuZX6ri1w0qkAMUL14-48" target="AJ046ehytsaY92THiT1I-130">
          <mxGeometry relative="1" as="geometry">
            <Array as="points">
              <mxPoint x="580" y="540" />
            </Array>
          </mxGeometry>
        </mxCell>
        <mxCell id="xnAuZX6ri1w0qkAMUL14-50" style="edgeStyle=none;shape=connector;rounded=0;orthogonalLoop=1;jettySize=auto;html=1;strokeColor=default;align=left;verticalAlign=bottom;fontFamily=Helvetica;fontSize=11;fontColor=default;labelBackgroundColor=default;endArrow=classic;" edge="1" parent="1" source="xnAuZX6ri1w0qkAMUL14-48" target="AJ046ehytsaY92THiT1I-129">
          <mxGeometry relative="1" as="geometry">
            <Array as="points">
              <mxPoint x="580" y="500" />
            </Array>
          </mxGeometry>
        </mxCell>
        <mxCell id="xnAuZX6ri1w0qkAMUL14-48" value="SI" style="whiteSpace=wrap;html=1;shape=rhombus;perimeter=rhombusPerimeter;fontSize=12;" vertex="1" parent="1">
          <mxGeometry x="540" y="500" width="40" height="40" as="geometry" />
        </mxCell>
        <mxCell id="xnAuZX6ri1w0qkAMUL14-62" style="edgeStyle=none;shape=connector;rounded=0;orthogonalLoop=1;jettySize=auto;html=1;strokeColor=default;align=left;verticalAlign=bottom;fontFamily=Helvetica;fontSize=11;fontColor=default;labelBackgroundColor=default;endArrow=classic;" edge="1" parent="1" source="xnAuZX6ri1w0qkAMUL14-61" target="AJ046ehytsaY92THiT1I-151">
          <mxGeometry relative="1" as="geometry">
            <Array as="points">
              <mxPoint x="80" y="240" />
              <mxPoint x="80" y="410" />
            </Array>
          </mxGeometry>
        </mxCell>
        <mxCell id="xnAuZX6ri1w0qkAMUL14-63" style="edgeStyle=none;shape=connector;rounded=0;orthogonalLoop=1;jettySize=auto;html=1;strokeColor=default;align=left;verticalAlign=bottom;fontFamily=Helvetica;fontSize=11;fontColor=default;labelBackgroundColor=default;endArrow=classic;" edge="1" parent="1" source="xnAuZX6ri1w0qkAMUL14-61" target="AJ046ehytsaY92THiT1I-149">
          <mxGeometry relative="1" as="geometry">
            <Array as="points">
              <mxPoint x="50" y="240" />
              <mxPoint x="50" y="450" />
            </Array>
          </mxGeometry>
        </mxCell>
        <mxCell id="xnAuZX6ri1w0qkAMUL14-61" value="SI" style="whiteSpace=wrap;html=1;shape=rhombus;perimeter=rhombusPerimeter;fontSize=12;" vertex="1" parent="1">
          <mxGeometry x="45" y="200" width="40" height="40" as="geometry" />
        </mxCell>
      </root>
    </mxGraphModel>
  </diagram>
</mxfile>
